<svg width="70" height="13" viewBox="0 0 70 13" fill="none" xmlns="http://www.w3.org/2000/svg">
<rect x="35.2007" y="2.61732" width="33.5" height="7.5" stroke="black" stroke-width="0.5"/>
<path d="M1.76267 8.06333V6.77933H3.71867C4.15067 6.77933 4.46267 6.67933 4.65467 6.47933C4.85067 6.27533 4.94867 5.98133 4.94867 5.59733V5.15933C4.94867 4.76733 4.85267 4.47333 4.66067 4.27733C4.46867 4.07733 4.15667 3.97733 3.72467 3.97733H1.76267V2.69933H3.81467C4.74667 2.69933 5.42867 2.90933 5.86067 3.32933C6.29667 3.74933 6.51467 4.34533 6.51467 5.11733V5.64533C6.51467 6.41733 6.29667 7.01333 5.86067 7.43333C5.42867 7.85333 4.74667 8.06333 3.81467 8.06333H1.76267ZM0.712673 10.3673V2.69933H2.26067V7.14533L2.26667 7.85933V10.3673H0.712673Z" fill="black"/>
<path d="M7.59561 10.3673V2.43533H9.13761V10.3673H7.59561Z" fill="black"/>
<path d="M11.9659 4.48133V8.02133C11.9659 8.26533 11.9979 8.47933 12.0619 8.66333C12.1299 8.84333 12.2399 8.98333 12.3919 9.08333C12.5479 9.17933 12.7559 9.22733 13.0159 9.22733C13.2519 9.22733 13.4559 9.18533 13.6279 9.10133C13.7999 9.01733 13.9419 8.90533 14.0539 8.76533C14.1659 8.62133 14.2479 8.46133 14.2999 8.28533L14.5399 9.11933H14.2519C14.1879 9.37533 14.0799 9.60933 13.9279 9.82133C13.7799 10.0293 13.5759 10.1953 13.3159 10.3193C13.0599 10.4433 12.7379 10.5053 12.3499 10.5053C11.9019 10.5053 11.5359 10.4193 11.2519 10.2473C10.9719 10.0753 10.7639 9.82133 10.6279 9.48533C10.4959 9.14933 10.4299 8.73533 10.4299 8.24333V4.48133H11.9659ZM15.7999 4.48133V10.3673H14.2699L14.3239 8.93933L14.2639 8.81333V4.48133H15.7999Z" fill="black"/>
<path d="M19.6421 8.56133C18.7501 8.56133 18.0741 8.38533 17.6141 8.03333C17.1541 7.67733 16.9241 7.17933 16.9241 6.53933V6.44933C16.9241 6.02533 17.0161 5.66533 17.2001 5.36933C17.3841 5.06933 17.6721 4.83533 18.0641 4.66733C18.4561 4.49933 18.9641 4.40333 19.5881 4.37933L22.6901 4.25333V5.38133L21.0941 5.32133V5.38733C21.3461 5.43933 21.5541 5.52333 21.7181 5.63933C21.8861 5.75133 22.0121 5.89733 22.0961 6.07733C22.1801 6.25333 22.2221 6.46733 22.2221 6.71933V6.77333C22.2221 7.35333 22.0081 7.79733 21.5801 8.10533C21.1521 8.40933 20.5061 8.56133 19.6421 8.56133ZM19.5701 11.4893H19.7381C20.0501 11.4893 20.3081 11.4673 20.5121 11.4233C20.7161 11.3833 20.8681 11.3193 20.9681 11.2313C21.0721 11.1473 21.1241 11.0373 21.1241 10.9013V10.8833C21.1241 10.7153 21.0581 10.5913 20.9261 10.5113C20.7981 10.4353 20.5901 10.3833 20.3021 10.3553L18.5801 10.1873L18.9341 10.1693C18.7861 10.1973 18.6541 10.2393 18.5381 10.2953C18.4261 10.3473 18.3381 10.4173 18.2741 10.5053C18.2101 10.5933 18.1781 10.7013 18.1781 10.8293V10.8413C18.1781 10.9893 18.2301 11.1113 18.3341 11.2073C18.4381 11.3073 18.5941 11.3793 18.8021 11.4233C19.0101 11.4673 19.2661 11.4893 19.5701 11.4893ZM19.4861 12.6473C18.9181 12.6473 18.4321 12.5993 18.0281 12.5033C17.6241 12.4113 17.3141 12.2633 17.0981 12.0593C16.8861 11.8553 16.7801 11.5853 16.7801 11.2493V11.2253C16.7801 10.9973 16.8301 10.8053 16.9301 10.6493C17.0301 10.4933 17.1721 10.3693 17.3561 10.2773C17.5401 10.1853 17.7521 10.1273 17.9921 10.1033V10.0433C17.6881 9.98333 17.4581 9.88533 17.3021 9.74933C17.1501 9.60933 17.0741 9.41933 17.0741 9.17933V9.17333C17.0741 9.00533 17.1121 8.86333 17.1881 8.74733C17.2641 8.63133 17.3761 8.53933 17.5241 8.47133C17.6761 8.40333 17.8621 8.36333 18.0821 8.35133V8.17733L19.3841 8.50133L18.9641 8.48933C18.7801 8.49333 18.6521 8.51933 18.5801 8.56733C18.5081 8.61133 18.4721 8.67533 18.4721 8.75933V8.76533C18.4721 8.86933 18.5281 8.94533 18.6401 8.99333C18.7521 9.03733 18.9381 9.07533 19.1981 9.10733L20.6081 9.26333C21.2681 9.33933 21.7541 9.50133 22.0661 9.74933C22.3821 9.99733 22.5401 10.3793 22.5401 10.8953V10.9253C22.5401 11.3213 22.4281 11.6453 22.2041 11.8973C21.9801 12.1533 21.6561 12.3413 21.2321 12.4613C20.8121 12.5853 20.3021 12.6473 19.7021 12.6473H19.4861ZM19.6001 7.49333C19.8681 7.49333 20.0901 7.45533 20.2661 7.37933C20.4461 7.30333 20.5801 7.19133 20.6681 7.04333C20.7601 6.89533 20.8061 6.71533 20.8061 6.50333V6.43733C20.8061 6.22533 20.7621 6.04733 20.6741 5.90333C20.5861 5.75533 20.4541 5.64533 20.2781 5.57333C20.1021 5.49733 19.8801 5.45933 19.6121 5.45933H19.5941C19.3101 5.45933 19.0781 5.49933 18.8981 5.57933C18.7181 5.65533 18.5861 5.76733 18.5021 5.91533C18.4181 6.05933 18.3761 6.23333 18.3761 6.43733V6.50333C18.3761 6.71533 18.4201 6.89533 18.5081 7.04333C18.6001 7.19133 18.7361 7.30333 18.9161 7.37933C19.1001 7.45533 19.3281 7.49333 19.6001 7.49333Z" fill="black"/>
<path d="M23.4628 10.3673V4.48133H24.9988V10.3673H23.4628ZM24.2308 3.78533C23.9388 3.78533 23.7228 3.71733 23.5828 3.58133C23.4468 3.44133 23.3788 3.24933 23.3788 3.00533V2.97533C23.3788 2.73133 23.4468 2.53933 23.5828 2.39933C23.7228 2.25933 23.9388 2.18933 24.2308 2.18933C24.5188 2.18933 24.7328 2.25933 24.8728 2.39933C25.0128 2.53933 25.0828 2.73133 25.0828 2.97533V3.00533C25.0828 3.25333 25.0128 3.44533 24.8728 3.58133C24.7328 3.71733 24.5188 3.78533 24.2308 3.78533Z" fill="black"/>
<path d="M30.1793 10.3673V6.83333C30.1793 6.58533 30.1453 6.37133 30.0773 6.19133C30.0133 6.01133 29.9053 5.87133 29.7533 5.77133C29.6013 5.67133 29.3933 5.62133 29.1293 5.62133C28.8973 5.62133 28.6933 5.66333 28.5173 5.74733C28.3453 5.83133 28.2033 5.94533 28.0913 6.08933C27.9833 6.22933 27.9013 6.38933 27.8453 6.56933L27.6053 5.72933H27.8933C27.9573 5.46933 28.0633 5.23533 28.2113 5.02733C28.3633 4.81933 28.5673 4.65533 28.8233 4.53533C29.0833 4.41133 29.4073 4.34933 29.7953 4.34933C30.2473 4.34933 30.6133 4.43533 30.8933 4.60733C31.1733 4.77533 31.3793 5.02733 31.5113 5.36333C31.6473 5.69933 31.7153 6.11533 31.7153 6.61133V10.3673H30.1793ZM26.3453 10.3673V4.48133H27.8813L27.8213 5.91533L27.8813 6.04133V10.3673H26.3453Z" fill="black"/>
<path d="M37.6157 7.86732V5.06732H38.1437V7.86732H37.6157Z" fill="black"/>
<path d="M38.9104 7.86732V5.06732H39.9144L40.4704 7.50732H40.5424V5.06732H41.0624V7.86732H40.0584L39.5024 5.42732H39.4304V7.86732H38.9104Z" fill="black"/>
<path d="M42.4781 7.86732V5.54732H41.6621V5.06732H43.8221V5.54732H43.0061V7.86732H42.4781Z" fill="black"/>
<path d="M44.4217 7.86732V5.06732H46.2217V5.54732H44.9497V6.21532H46.1097V6.69532H44.9497V7.38732H46.2457V7.86732H44.4217Z" fill="black"/>
<path d="M46.8765 7.86732V5.06732H47.4045V7.38732H48.6845V7.86732H46.8765Z" fill="black"/>
<path d="M49.2845 7.86732V5.06732H49.8125V7.38732H51.0925V7.86732H49.2845Z" fill="black"/>
<path d="M51.6924 7.86732V5.06732H52.2204V7.86732H51.6924Z" fill="black"/>
<path d="M53.9551 7.92332C53.7631 7.92332 53.5885 7.88066 53.4311 7.79532C53.2765 7.70732 53.1525 7.58066 53.0591 7.41532C52.9685 7.24732 52.9231 7.04332 52.9231 6.80332V6.13132C52.9231 5.77132 53.0245 5.49532 53.2271 5.30332C53.4298 5.10866 53.7045 5.01132 54.0511 5.01132C54.3951 5.01132 54.6605 5.10332 54.8471 5.28732C55.0365 5.46866 55.1311 5.71532 55.1311 6.02732V6.04332H54.6111V6.01132C54.6111 5.91266 54.5898 5.82332 54.5471 5.74332C54.5071 5.66332 54.4458 5.60066 54.3631 5.55532C54.2805 5.50732 54.1765 5.48332 54.0511 5.48332C53.8645 5.48332 53.7178 5.54066 53.6111 5.65532C53.5045 5.76999 53.4511 5.92599 53.4511 6.12332V6.81132C53.4511 7.00599 53.5045 7.16332 53.6111 7.28332C53.7178 7.40066 53.8671 7.45932 54.0591 7.45932C54.2511 7.45932 54.3911 7.40866 54.4791 7.30732C54.5671 7.20599 54.6111 7.07799 54.6111 6.92332V6.88332H53.9471V6.43532H55.1311V7.86732H54.6431V7.59932H54.5711C54.5525 7.64466 54.5218 7.69266 54.4791 7.74332C54.4391 7.79399 54.3778 7.83666 54.2951 7.87132C54.2125 7.90599 54.0991 7.92332 53.9551 7.92332Z" fill="black"/>
<path d="M55.8756 7.86732V5.06732H57.6756V5.54732H56.4036V6.21532H57.5636V6.69532H56.4036V7.38732H57.6996V7.86732H55.8756Z" fill="black"/>
<path d="M58.3304 7.86732V5.06732H59.3344L59.8904 7.50732H59.9624V5.06732H60.4824V7.86732H59.4784L58.9224 5.42732H58.8504V7.86732H58.3304Z" fill="black"/>
<path d="M62.3141 7.92332C61.9674 7.92332 61.6928 7.82732 61.4901 7.63532C61.2874 7.44066 61.1861 7.16332 61.1861 6.80332V6.13132C61.1861 5.77132 61.2874 5.49532 61.4901 5.30332C61.6928 5.10866 61.9674 5.01132 62.3141 5.01132C62.6581 5.01132 62.9234 5.10599 63.1101 5.29532C63.2994 5.48199 63.3941 5.73932 63.3941 6.06732V6.09132H62.8741V6.05132C62.8741 5.88599 62.8274 5.74999 62.7341 5.64332C62.6434 5.53666 62.5034 5.48332 62.3141 5.48332C62.1274 5.48332 61.9808 5.54066 61.8741 5.65532C61.7674 5.76999 61.7141 5.92599 61.7141 6.12332V6.81132C61.7141 7.00599 61.7674 7.16199 61.8741 7.27932C61.9808 7.39399 62.1274 7.45132 62.3141 7.45132C62.5034 7.45132 62.6434 7.39799 62.7341 7.29132C62.8274 7.18199 62.8741 7.04599 62.8741 6.88332V6.81132H63.3941V6.86732C63.3941 7.19532 63.2994 7.45399 63.1101 7.64332C62.9234 7.82999 62.6581 7.92332 62.3141 7.92332Z" fill="black"/>
<path d="M64.0643 7.86732V5.06732H65.8643V5.54732H64.5923V6.21532H65.7523V6.69532H64.5923V7.38732H65.8883V7.86732H64.0643Z" fill="black"/>
</svg>
